PathFileType	4	(X/Y/Z)	C:/Users/opensim2020/Desktop/walking_exp_matlab/subject01_walking14_straight_04.trc	
DataRate	CameraRate	NumFrames	NumMarkers	Units	OrigDataRate	OrigDataStartFrame	OrigNumFrames	
100.00	100.00	8	42	mm	100.00	2118	89	
Frame#	Time	LFHD			RFHD			LBHD			RBHD			C7			T10			CLAV			STRN			RBAK			LSHO			LUPA			LELB			LFRM			LWRA			LWRB			LFIN			RSHO			RUPA			RELB			RFRM			RWRA			RWRB			RFIN			LASI			RASI			LPSI			RPSI			LTHI			LKNE			LTIB			LANK			LHEE			LTOE			RTHI			RKNE			RTIB			RANK			RHEE			RTOE			*39			*40			*41			
		X1	Y1	Z1	X2	Y2	Z2	X3	Y3	Z3	X4	Y4	Z4	X5	Y5	Z5	X6	Y6	Z6	X7	Y7	Z7	X8	Y8	Z8	X9	Y9	Z9	X10	Y10	Z10	X11	Y11	Z11	X12	Y12	Z12	X13	Y13	Z13	X14	Y14	Z14	X15	Y15	Z15	X16	Y16	Z16	X17	Y17	Z17	X18	Y18	Z18	X19	Y19	Z19	X20	Y20	Z20	X21	Y21	Z21	X22	Y22	Z22	X23	Y23	Z23	X24	Y24	Z24	X25	Y25	Z25	X26	Y26	Z26	X27	Y27	Z27	X28	Y28	Z28	X29	Y29	Z29	X30	Y30	Z30	X31	Y31	Z31	X32	Y32	Z32	X33	Y33	Z33	X34	Y34	Z34	X35	Y35	Z35	X36	Y36	Z36	X37	Y37	Z37	X38	Y38	Z38	X39	Y39	Z39	X40	Y40	Z40	X41	Y41	Z41	X42	Y42	Z42	

45	0.440	-1069.90308	73.53422	1660.66882	-1170.25171	17.90694	1663.17322	-1124.49744	182.19461	1629.85645	-1229.71167	126.08601	1631.76831	-1148.49670	225.82848	1435.48792	-1146.50330	279.64005	1142.80371	-1143.09473	83.38879	1361.18079	-1138.62073	50.47342	1204.56030	-1224.02295	291.13907	1246.72595	-987.58020	147.84058	1403.31836	-895.09485	217.06480	1236.33398	-889.94812	266.19086	1094.32373	-864.05157	255.60822	979.96136	-877.09271	206.74202	848.78711	-858.16199	262.52701	857.46942	-840.61053	235.14168	780.59595	-1291.62268	146.74521	1402.23523	-1400.59766	201.66547	1211.75049	-1415.09375	185.16573	1083.76050	-1432.83813	101.86784	988.83978	-1395.80627	-22.27670	931.57904	-1437.07385	9.57834	907.80707	-1433.66284	-64.46613	867.33734	-1041.20459	104.61996	936.05200	-1258.14929	116.85208	932.09863	-1080.33008	292.10495	944.98859	-1223.94678	299.50266	954.00122	-976.25989	37.00341	622.78070	-995.89008	8.60399	491.42932	-996.90698	59.28874	307.99307	-1056.20691	79.10274	91.48279	-1119.38477	112.94040	61.71268	-1030.16150	-56.07514	54.43513	-1306.96790	226.59953	606.53589	-1282.36804	248.52258	448.68533	-1285.38086	331.62079	292.37903	-1234.38037	384.12927	90.61916	-1180.20276	433.63663	59.81051	-1240.12683	248.82426	35.95517	-1151.94055	33.44918	1697.97180	-3101.88965	1973.18591	1023.33337	-3140.68945	2012.49817	1022.10211 
46	0.450	-1068.80774	60.31899	1659.11829	-1168.74060	4.59105	1661.76233	-1123.59448	168.87845	1628.29138	-1228.73535	112.43556	1630.38794	-1148.03479	212.40833	1434.15137	-1146.09839	266.52036	1141.52258	-1142.41711	69.99454	1359.64319	-1138.32910	37.18797	1203.08826	-1223.98584	277.69370	1245.54736	-986.81171	134.79076	1401.53455	-895.27313	205.63576	1234.65503	-890.77325	255.95392	1093.50610	-864.62592	248.20264	979.14532	-876.52881	203.14250	846.54926	-858.16278	258.68271	856.96234	-840.08124	234.00067	779.40540	-1290.90210	132.82579	1401.29199	-1400.90198	186.80261	1211.19104	-1416.02246	169.29329	1083.37158	-1432.61609	83.35610	990.53967	-1393.98865	-41.75663	936.85370	-1435.34106	-11.22198	912.14850	-1431.19238	-86.27991	873.81909	-1041.56885	90.96796	934.52411	-1258.50232	104.22525	930.85272	-1079.52673	278.54672	943.59369	-1222.92981	286.72360	953.29205	-976.66180	24.19988	620.76721	-997.12976	-4.74292	489.93445	-997.02209	35.59062	304.65915	-1056.08435	40.82554	85.99047	-1118.98621	73.66227	54.56187	-1031.72607	-96.86515	57.41486	-1307.06018	218.16043	606.60437	-1282.56201	242.33304	448.88135	-1285.16418	327.82620	293.79846	-1234.28528	383.00833	92.60897	-1180.33142	432.91620	62.69344	-1240.13440	248.55139	35.86414	-1150.56689	20.18366	1696.44336	-3102.05200	1973.16333	1023.50708	-3140.79077	2012.53845	1022.02490 
47	0.460	-1067.35022	46.76296	1657.90479	-1167.26929	-8.95006	1660.33801	-1122.63501	155.53127	1626.65137	-1227.53931	98.82121	1628.89124	-1147.36633	198.92885	1432.72937	-1145.43030	253.24506	1140.15222	-1141.55603	56.49882	1358.10010	-1137.91675	23.80019	1201.53357	-1223.78088	264.09244	1244.32874	-985.89728	121.58693	1399.67395	-895.09460	194.17171	1233.00183	-891.47638	245.49753	1092.47949	-865.09052	240.46016	978.32147	-876.08350	198.75925	844.41205	-858.68195	254.27705	856.50494	-839.55475	232.07149	778.30377	-1290.16443	118.92291	1400.35242	-1401.00110	172.03580	1210.61353	-1416.75159	153.53299	1082.94739	-1432.23157	65.23508	992.20587	-1392.14917	-60.64318	941.80499	-1433.90784	-31.24283	916.27490	-1428.79419	-107.34854	879.95593	-1041.80652	76.98428	932.85522	-1258.81384	91.42807	929.62488	-1078.77295	264.76584	942.27014	-1221.89087	273.65570	952.56299	-976.93555	12.08716	618.27130	-998.33813	-17.84374	488.28540	-997.21497	12.64661	301.81982	-1055.98840	3.88586	81.99620	-1118.41309	35.28481	48.63414	-1033.08484	-135.94669	62.15539	-1306.97876	209.49896	606.66492	-1282.60046	235.82088	449.11096	-1284.94482	323.48627	295.32254	-1234.48987	381.68842	94.86808	-1180.51318	432.03784	65.80242	-1240.06665	248.29102	35.76307	-1149.08435	6.73573	1695.03528	-3102.06396	1973.09875	1023.52069	-3140.83203	2012.50952	1022.07617 
48	0.470	-1065.65967	34.01912	1656.13892	-1165.71094	-22.43751	1658.89014	-1121.43323	142.14243	1624.87476	-1226.24329	85.15578	1627.32910	-1146.49341	185.44357	1431.23425	-1144.59814	239.86476	1138.66284	-1140.59363	42.99359	1356.54187	-1137.41272	10.34400	1200.04846	-1223.44055	250.53207	1243.02930	-984.76617	108.21606	1397.74963	-895.07275	182.17477	1231.03552	-892.13580	234.63176	1091.31641	-865.41522	232.25989	977.47192	-875.70435	193.72464	842.42377	-858.50372	249.01927	855.99976	-839.27533	229.05148	777.30670	-1289.14258	105.05059	1399.33313	-1400.62329	157.33353	1209.92090	-1417.34436	138.05524	1082.52136	-1432.01453	47.68800	993.71753	-1390.36365	-78.98624	946.44672	-1432.33411	-50.68018	920.20178	-1426.44629	-127.60239	885.83936	-1042.06360	62.74169	931.08203	-1259.07361	78.30895	928.39679	-1077.96924	250.51276	940.66858	-1220.75061	260.32050	951.68915	-977.35052	1.14106	615.37225	-999.54150	-30.89457	486.55313	-997.66425	-9.79384	299.36432	-1055.71667	-31.71877	79.51751	-1118.00806	-1.83164	44.20678	-1034.16223	-173.17212	68.05785	-1307.65198	200.68155	607.17847	-1282.85925	228.72195	449.23355	-1284.97961	318.61444	296.88846	-1234.56921	380.06778	97.08939	-1180.83899	431.09192	69.21817	-1240.14197	248.11322	35.93213	-1147.38635	-6.61997	1693.41223	-3101.88135	1973.21875	1023.41095	-3140.66284	2012.56702	1022.15106 
49	0.480	-1064.25415	20.75866	1654.25586	-1163.79395	-35.70056	1657.30066	-1120.06323	128.74701	1623.15564	-1224.73523	71.50703	1625.74280	-1145.41663	171.89789	1429.69629	-1143.60852	226.39848	1137.09167	-1139.42761	29.43390	1354.96936	-1136.76587	-3.12138	1198.57397	-1222.96765	236.86066	1241.71167	-983.39264	95.07111	1395.81287	-894.56018	170.22580	1229.21863	-892.54755	223.45183	1090.19092	-865.70172	223.47617	976.44739	-875.32123	187.90958	840.57806	-858.81250	243.06366	855.52106	-839.02460	225.22528	776.36084	-1287.95154	91.20255	1398.30920	-1400.41089	142.77594	1209.39050	-1417.81921	122.87608	1082.14380	-1431.37537	30.44099	995.10461	-1388.58398	-96.73998	950.75732	-1430.91418	-69.39042	923.84985	-1424.18127	-147.14485	891.20410	-1042.25269	48.20828	929.37390	-1259.27295	65.15609	927.17151	-1077.10901	236.29996	939.07520	-1219.64954	246.74756	950.81555	-977.12659	-10.09233	612.34430	-1000.69257	-44.09430	484.64719	-998.11682	-31.97159	297.42130	-1055.50610	-65.61468	78.30537	-1117.40979	-36.93900	41.25789	-1034.87073	-207.63135	74.00432	-1308.00195	191.32629	607.32538	-1283.30713	221.00203	449.33563	-1284.83594	313.33707	298.33350	-1235.06165	378.45932	99.61949	-1181.29541	430.06668	72.92288	-1240.21912	247.82832	35.88965	-1145.71338	-19.99562	1692.01782	-3101.97681	1973.15466	1023.45361	-3140.53662	2012.60852	1022.05103 
50	0.490	-1062.47864	7.46982	1652.60632	-1161.98962	-49.25901	1655.91077	-1118.46619	115.32011	1621.42432	-1223.02234	57.88820	1624.19385	-1144.17871	158.41522	1428.21826	-1142.54480	212.74675	1135.50952	-1138.09229	15.83551	1353.41357	-1136.03723	-16.82407	1197.11877	-1222.33472	223.26888	1240.40137	-981.96320	81.60433	1393.81079	-893.98651	157.86584	1227.21362	-892.75958	211.88184	1088.87134	-865.77643	214.25063	975.38269	-875.06586	181.29201	838.69403	-858.97992	236.20894	854.84937	-838.97327	220.21544	775.23260	-1286.36194	77.39019	1397.26392	-1400.01038	128.24698	1208.90918	-1417.92090	107.74772	1081.66260	-1430.77393	13.67508	996.33301	-1386.85376	-113.88790	954.60498	-1429.65417	-87.47036	927.26337	-1421.99854	-165.88467	896.17627	-1042.46558	33.47440	927.61609	-1259.39709	51.52792	925.91510	-1076.11829	221.99596	937.46973	-1218.60535	232.97940	949.80725	-976.03369	-21.70331	609.25220	-1001.68817	-57.42611	482.76538	-998.50311	-53.03435	295.90494	-1055.20557	-96.72612	78.12494	-1116.96106	-69.67542	39.61805	-1035.32703	-239.37987	79.86866	-1308.28369	181.44261	607.37695	-1283.88318	212.70898	449.35291	-1285.05823	307.66406	299.88577	-1235.75952	376.84100	102.53657	-1182.15234	429.05655	77.13441	-1240.32568	247.61598	35.87397	-1143.80896	-33.34901	1690.32361	-3101.96460	1973.17065	1023.43286	-3140.66602	2012.55908	1022.10986 
51	0.500	-1060.56982	-5.93810	1650.90808	-1159.75684	-62.67400	1654.31531	-1116.88867	101.82618	1619.84106	-1221.26819	44.20985	1622.69922	-1143.04944	145.02524	1426.68225	-1141.48584	198.92528	1133.85120	-1136.63733	2.13245	1351.92102	-1135.01941	-30.56839	1195.76074	-1221.47595	209.53857	1239.07922	-980.59369	68.46926	1391.95068	-893.26324	145.12805	1225.20410	-893.29565	200.12166	1087.37476	-865.86078	204.42592	974.13379	-874.84540	173.83905	836.79742	-858.63489	228.51076	854.09259	-838.88312	214.11783	774.21454	-1284.96191	63.64388	1396.23877	-1399.45203	113.85838	1208.42188	-1417.93909	92.89123	1081.27393	-1430.15234	-2.63838	997.45441	-1385.22705	-130.53423	958.05066	-1427.90906	-104.97068	930.06354	-1419.89526	-183.91406	900.62469	-1042.44495	18.59506	926.01172	-1259.25427	37.93352	924.57373	-1075.13477	207.44574	935.79718	-1217.48938	218.87686	948.72736	-974.82697	-33.07237	606.10248	-1002.47955	-70.82571	480.93643	-998.84833	-72.98917	294.78015	-1055.41003	-125.39493	78.16010	-1117.24255	-99.78246	38.76537	-1035.70642	-268.08514	85.00336	-1309.12695	170.80902	607.44647	-1284.41248	203.94080	449.30688	-1285.42688	301.83682	301.73544	-1236.62390	374.88199	105.43733	-1183.09790	427.40594	81.39132	-1240.50012	247.33846	35.96903	-1141.83813	-46.84601	1688.93506	-3101.84229	1973.13501	1023.31891	-3140.73584	2012.47229	1022.03259 
52	0.510	-1058.39624	-19.41119	1649.30737	-1157.48083	-76.24968	1652.86633	-1114.99097	88.15908	1618.08496	-1219.16089	30.54687	1621.17859	-1141.35986	131.36234	1425.11499	-1140.37891	184.90057	1132.13159	-1135.06262	-11.62361	1350.58655	-1133.91907	-44.57759	1194.41687	-1220.37476	195.76707	1237.76318	-978.73645	54.53820	1389.88416	-892.06488	132.27162	1223.15930	-893.11688	187.91434	1085.86426	-865.68353	193.95409	972.79663	-874.62885	165.53867	834.91290	-858.62256	219.95793	853.14435	-838.85022	207.33406	773.03284	-1283.20190	49.92931	1395.23718	-1398.60278	99.53044	1207.85754	-1417.84644	78.24192	1080.87683	-1429.52014	-18.41354	998.34991	-1383.63928	-146.61882	961.01154	-1426.53979	-121.84693	932.59418	-1417.95251	-201.24394	904.52539	-1042.46765	3.61188	924.46759	-1259.28809	23.65422	923.40344	-1074.04724	193.00226	934.24243	-1216.37024	204.88988	947.48877	-973.27704	-45.79342	603.32886	-1003.14600	-84.46872	479.27585	-999.58752	-91.69604	293.68872	-1055.88916	-150.67702	78.54077	-1117.70239	-126.28143	38.38544	-1036.07336	-293.69687	89.14184	-1309.21021	159.44250	607.05481	-1284.95618	194.46817	449.12140	-1285.96960	295.53091	303.64188	-1237.69922	372.66315	108.67897	-1184.29626	425.71304	86.26791	-1240.76453	246.93085	35.97540	-1139.48584	-60.27079	1687.32458	-3101.95752	1973.20752	1023.61023	-3140.67700	2012.58240	1022.03406 
